<?xml version="1.0" encoding="UTF-8"?>
<svg xmlns="http://www.w3.org/2000/svg" version="1.1" viewBox="0 0 612 363.89">
  <defs>
    <style>.st0{fill:#fff;}</style>
  </defs>
  <path class="st0" d="M211.12,302.92c-5.92-1.62-11.57-3.32-16.94-5.1-4.87-1.6-9.52-3.27-13.92-5-32.62-12.79-51.96-28.7-51.96-45.96,0-42.19,115.63-76.39,258.28-76.39,71.92,0,136.97,8.69,183.8,22.72l-359.97,75.13c-10.82,2.26-18.1,12.14-17.4,22.85,7.67.98,14.24,5.44,18.11,11.75Z"/>
  <path class="st0" d="M434.86,107.3c0,17.38-19.62,33.4-52.67,46.24-6.49-7.66-16.18-12.52-27.01-12.52-17.63,0-32.25,12.9-34.94,29.78-41.07,8.14-90.49,12.89-143.65,12.89-49.48,0-95.7-4.11-134.97-11.25l337.04-70.34c11.85-2.47,19.44-14.07,16.97-25.92l-1.5-7.21c-.24-1.14-.56-2.25-.97-3.31,26.37,11.98,41.7,26.28,41.7,41.64Z"/>
  <path class="st0" d="M157.92,311.71c0-27.24,22.1-49.34,49.35-49.34s49.34,22.1,49.34,49.34c0,2.66-.21,5.28-.63,7.83-33.08,6.57-62.27,14.71-86.36,24.06-7.31-8.6-11.7-19.73-11.7-31.9Z"/>
  <path class="st0" d="M426.53,40.64c0,.96-.05,1.91-.17,2.84-1.4,12.48-12,22.18-24.86,22.18-13.82,0-25.02-11.2-25.02-25.02,0-10.46,6.41-19.42,15.52-23.16,2.93-1.21,6.14-1.87,9.5-1.87,1.1,0,2.19.07,3.25.22,7.67.98,14.24,5.44,18.11,11.75,2.33,3.8,3.67,8.27,3.67,13.06Z"/>
  <path class="st0" d="M207.62,287.02c12.42,3.4,25.98,6.45,40.49,9.08l-30.75,6.42c-2.1.44-4.2.56-6.24.4-9.43-.76-17.64-7.62-19.68-17.37l-.76-3.63-.75-3.58c-.21-1.03-.35-2.05-.42-3.07,7.67.98,14.24,5.44,18.11,11.75Z"/>
</svg>
