<?xml version="1.0" encoding="UTF-8"?>
<svg id="_レイヤー_1" data-name="レイヤー_1" xmlns="http://www.w3.org/2000/svg" version="1.1" viewBox="0 0 900.42 564.23">
  <!-- Generator: Adobe Illustrator 30.5.1, SVG Export Plug-In . SVG Version: 2.1.4 Build 3)  -->
  <defs>
    <style>
      .st0 {
        fill: #231815;
      }
    </style>
  </defs>
  <path class="st0" d="M712.66,318.83c1.53,0,2.8-.47,3.83-1.42,1.02-.94,1.53-2.12,1.53-3.53s-.52-2.62-1.55-3.57c-1.03-.95-2.32-1.43-3.87-1.43-1.47,0-2.72.5-3.75,1.49-1.03.99-1.55,2.18-1.55,3.57s.51,2.58,1.52,3.5c1.01.92,2.29,1.38,3.84,1.38Z"/>
  <path class="st0" d="M677.22,163.74c-1.15-1.17-2.7-1.76-4.65-1.76s-3.54.59-4.78,1.76c-1.24,1.17-2.05,2.84-2.43,5h13.79c-.14-2.16-.78-3.83-1.94-5Z"/>
  <path class="st0" d="M495.56,368.22c-4.76,0-8.67,1.49-11.74,4.47-3.06,2.98-4.6,6.78-4.6,11.41s1.54,8.22,4.61,11.2c3.07,2.98,6.92,4.47,11.54,4.47s8.51-1.52,11.62-4.56c3.1-3.04,4.66-6.82,4.66-11.35s-1.55-8.12-4.66-11.12c-3.1-3.01-6.92-4.51-11.44-4.51Z"/>
  <polygon class="st0" points="755.23 225.7 749.01 240.77 761.94 240.77 755.23 225.7"/>
  <path class="st0" d="M661.66,468.02c-.76.75-1.15,1.67-1.15,2.79s.36,2.05,1.09,2.77c.72.71,1.66,1.07,2.81,1.07,1.73,0,3.33-.7,4.79-2.11v-8.13l-3.63,1.4c-1.85.73-3.15,1.47-3.92,2.22Z"/>
  <path class="st0" d="M720.28,337.18c0-1.27-.83-2.31-2.5-3.11-1.67-.8-3.82-1.21-6.46-1.21-1.83,0-3.32.39-4.48,1.16-1.16.77-1.74,1.77-1.74,2.98,0,2.82,2.54,4.23,7.62,4.23,2.4,0,4.26-.35,5.58-1.06,1.32-.7,1.98-1.7,1.98-2.99Z"/>
  <path class="st0" d="M845.63,462.16c-3.1,2.08-4.65,4.2-4.65,6.34,0,1.17.51,2.17,1.52,3.01,1.01.83,2.23,1.25,3.66,1.25,1.11,0,2.37-.32,3.77-.95,1.4-.64,2.65-1.46,3.74-2.47l1.34-1.22-6.76-7.8-2.62,1.85Z"/>
  <path class="st0" d="M874.87,527.9c-1.95,0-3.54.59-4.78,1.76-1.24,1.17-2.05,2.84-2.43,5h13.79c-.14-2.16-.78-3.83-1.94-5-1.15-1.17-2.7-1.76-4.65-1.76Z"/>
  <path class="st0" d="M768.5,454.72c-1.95,0-3.54.59-4.78,1.76-1.24,1.17-2.05,2.84-2.43,5h13.79c-.14-2.16-.78-3.83-1.94-5-1.15-1.17-2.7-1.76-4.65-1.76Z"/>
  <path class="st0" d="M849.79,453.29l2.28-1.61c2.12-1.49,3.18-3.22,3.18-5.2,0-1.21-.44-2.23-1.32-3.05-.88-.82-2-1.22-3.35-1.22s-2.39.38-3.25,1.13c-.85.76-1.28,1.7-1.28,2.83s.33,2.28,1,3.56,1.58,2.46,2.74,3.55Z"/>
  <path class="st0" d="M450.61.25H1.5v563.72h449.11v.25h449.81V.25h-449.81ZM216.09,8.73c94.61,0,171.3,34.76,171.3,77.64s-76.69,77.64-171.3,77.64S44.79,129.26,44.79,86.38,121.49,8.73,216.09,8.73ZM89.62,376.94c-42.44,0-76.84-34.4-76.84-76.84s34.4-76.84,76.84-76.84,76.84,34.4,76.84,76.84-34.4,76.84-76.84,76.84ZM195.15,549.34c-50.26-23.68-48.83-132.36,3.19-242.73,52.02-110.37,134.92-180.65,185.18-156.96,50.26,23.68,48.83,132.36-3.19,242.73-52.02,110.37-134.92,180.65-185.18,156.96ZM387.39,543.44c-25.64,0-46.43-20.79-46.43-46.43s20.79-46.43,46.43-46.43,46.43,20.79,46.43,46.43-20.79,46.43-46.43,46.43ZM780.44,464.04v.68h-19.27c.14,2.62,1.02,4.71,2.64,6.25,1.62,1.55,3.71,2.32,6.27,2.32,3.57,0,6.87-1.11,9.89-3.33v5.3c-1.67,1.11-3.32,1.91-4.96,2.38s-3.56.71-5.76.71c-3.02,0-5.46-.62-7.33-1.88-1.87-1.25-3.36-2.93-4.48-5.05-1.12-2.11-1.68-4.56-1.68-7.34,0-4.17,1.18-7.56,3.54-10.17,2.36-2.61,5.43-3.92,9.2-3.92s6.53,1.27,8.7,3.81c2.16,2.54,3.25,5.95,3.25,10.21ZM776.74,330.3c-2.08,1.17-4.36,1.76-6.82,1.76s-4.55-.72-6.19-2.17c-.52-.44-.94-.93-1.28-1.47-.34-.54-.62-1.26-.85-2.14-.23-.88-.34-2.57-.34-5.05v-12.15h-4.76v-.54l10.18-10.01v5.66h8.67v4.88h-8.67v13.41c0,3.13,1.3,4.7,3.9,4.7,1.95,0,4-.64,6.16-1.94v5.06ZM753.19,216.56h4.19l18.65,41.84h-6.1l-5.54-12.33h-17.75l-5.2,12.33h-6.12l17.87-41.84ZM691.04,293.63c.64-.64,1.37-.97,2.2-.97.89,0,1.66.31,2.29.92.64.62.95,1.37.95,2.26s-.32,1.63-.95,2.26c-.64.64-1.4.95-2.29.95-.83,0-1.57-.32-2.2-.97-.64-.64-.95-1.39-.95-2.25s.32-1.57.95-2.22ZM695.98,304.18v27.4h-5.42v-27.4h5.42ZM685.98,326.16v5.42h-24.69v-41.6h5.96v36.18h18.73ZM663.38,161.19c2.36-2.61,5.43-3.92,9.2-3.92s6.53,1.27,8.7,3.81c2.16,2.54,3.25,5.95,3.25,10.21v.68h-19.27c.14,2.62,1.02,4.71,2.64,6.25,1.62,1.55,3.71,2.32,6.27,2.32,3.57,0,6.87-1.11,9.89-3.33v5.3c-1.67,1.11-3.32,1.91-4.96,2.38s-3.56.71-5.76.71c-3.02,0-5.46-.62-7.33-1.88-1.87-1.25-3.36-2.93-4.48-5.05-1.12-2.11-1.68-4.56-1.68-7.34,0-4.17,1.18-7.56,3.54-10.17ZM617.9,147.26c.64-.64,1.37-.97,2.2-.97.89,0,1.66.31,2.29.92.64.62.95,1.37.95,2.26s-.32,1.63-.95,2.26c-.64.64-1.4.95-2.29.95-.83,0-1.57-.32-2.2-.97-.64-.64-.95-1.39-.95-2.25s.32-1.57.95-2.22ZM622.85,157.81v27.4h-5.42v-27.4h5.42ZM511.31,399.21c-4.31,4.02-9.76,6.03-16.32,6.03s-11.49-2.01-15.67-6.03c-4.18-4.02-6.26-9.06-6.26-15.11s2.1-11.36,6.31-15.43,9.52-6.1,15.95-6.1,11.78,2.04,16.05,6.1,6.41,9.17,6.41,15.31-2.16,11.21-6.47,15.23ZM547.3,404.76h-5.42v-15.6c0-2.8-.43-4.8-1.28-6s-2.28-1.8-4.29-1.8c-2.56,0-4.73,1.28-6.52,3.84v19.56h-5.54v-27.4h5.54v3.48c2.42-2.68,5.17-4.02,8.25-4.02,1.71,0,3.3.44,4.76,1.33,1.47.88,2.59,2.09,3.35,3.63.76,1.54,1.15,3.98,1.15,7.31v15.66ZM577.66,182.56c-2.23,2.08-5.14,3.13-8.71,3.13-4.11,0-7.85-1.26-11.23-3.79v-7.56c3.22,4.08,6.94,6.11,11.17,6.11,1.87,0,3.42-.52,4.66-1.56,1.24-1.04,1.86-2.34,1.86-3.9,0-2.53-1.83-4.93-5.48-7.21l-4.53-2.75c-2.84-1.73-4.86-3.44-6.06-5.12-1.2-1.68-1.8-3.61-1.8-5.79,0-3.28,1.14-5.94,3.41-7.98,2.27-2.04,5.23-3.07,8.86-3.07s6.66.97,9.56,2.93v6.76c-3-2.88-6.22-4.33-9.68-4.33-1.95,0-3.54.45-4.79,1.35-1.25.9-1.88,2.05-1.88,3.46,0,1.25.46,2.41,1.38,3.5.92,1.09,2.4,2.23,4.44,3.43l4.55,2.69c5.07,3.03,7.61,6.89,7.61,11.57,0,3.34-1.12,6.05-3.35,8.13ZM609.74,185.21h-5.42v-16.94c0-2-.49-3.62-1.47-4.84-.98-1.22-2.28-1.83-3.89-1.83-1.19,0-2.31.31-3.37.92s-2.21,1.64-3.48,3.07v19.62h-5.42v-41.6h5.42v17.81c2.26-2.76,5.07-4.14,8.43-4.14,1.83,0,3.46.46,4.91,1.37s2.53,2.17,3.23,3.78c.7,1.61,1.06,4,1.06,7.18v15.6ZM649.17,477.95h-5.12l-27.81-32.04v32.04h-5.6v-41.6h4.82l28.05,32.31v-32.31h5.66v41.6ZM653.61,185.21h-5.42v-15.6c0-2.8-.43-4.8-1.28-6s-2.28-1.8-4.29-1.8c-2.56,0-4.73,1.28-6.52,3.84v19.56h-5.54v-27.4h5.54v3.48c2.42-2.68,5.17-4.02,8.25-4.02,1.71,0,3.3.44,4.76,1.33,1.47.88,2.59,2.09,3.35,3.63.76,1.54,1.15,3.98,1.15,7.31v15.66ZM678.56,476.37c-1.23.79-2.22,1.33-2.96,1.62-.74.29-1.52.43-2.34.43-2.32,0-3.69-.91-4.11-2.74-2.3,1.79-4.75,2.68-7.36,2.68-1.91,0-3.49-.63-4.76-1.89s-1.91-2.84-1.91-4.75c0-1.73.62-3.27,1.86-4.63,1.24-1.36,3-2.44,5.29-3.23l6.94-2.38v-1.46c0-3.29-1.65-4.94-4.94-4.94-2.96,0-5.84,1.53-8.64,4.59v-5.93c2.1-2.48,5.13-3.72,9.08-3.72,2.96,0,5.33.77,7.12,2.32.6.5,1.13,1.16,1.61,1.98.48.82.78,1.65.91,2.47.13.82.19,2.39.19,4.69v11.64c0,.93.32,1.4.95,1.4s1.68-.49,3.07-1.46v3.31ZM699.77,476.67c-2.08,1.17-4.36,1.76-6.82,1.76s-4.55-.72-6.19-2.17c-.52-.44-.94-.93-1.28-1.47-.34-.54-.62-1.26-.85-2.14-.23-.88-.34-2.57-.34-5.05v-12.15h-4.76v-.54l10.18-10.01v5.66h8.67v4.88h-8.67v13.41c0,3.13,1.3,4.7,3.9,4.7,1.95,0,4-.64,6.16-1.94v5.06ZM699.97,336.94c0-3.71,2.29-6.1,6.88-7.18-1.83-1.17-2.74-2.33-2.74-3.48,0-.87.39-1.67,1.18-2.38s1.84-1.24,3.17-1.58c-4.03-1.79-6.04-4.68-6.04-8.67,0-2.92,1.07-5.23,3.2-6.92,2.13-1.7,5.05-2.55,8.74-2.55h11.29v4.23h-5.54c1.07,1.09,1.82,2.08,2.23,2.98.42.89.63,1.92.63,3.07,0,1.43-.41,2.83-1.22,4.21-.81,1.38-1.86,2.44-3.14,3.17-1.28.73-3.38,1.32-6.3,1.76-2.04.3-3.07,1-3.07,2.11,0,.64.38,1.16,1.15,1.56.76.41,2.15.83,4.15,1.27,3.35.73,5.51,1.31,6.48,1.73s1.83,1.01,2.61,1.79c1.31,1.31,1.97,2.96,1.97,4.94,0,2.6-1.16,4.67-3.47,6.22-2.31,1.55-5.4,2.32-9.28,2.32s-7.03-.78-9.37-2.34c-2.33-1.56-3.5-3.65-3.5-6.27ZM726.54,477.95h-5.42v-3.51c-1.15,1.26-2.47,2.24-3.95,2.94-1.48.7-2.95,1.05-4.42,1.05-1.73,0-3.32-.43-4.78-1.3-1.46-.86-2.56-2.03-3.31-3.51-.74-1.48-1.12-3.94-1.12-7.37v-15.69h5.42v15.61c0,2.88.41,4.88,1.24,6.02.82,1.14,2.27,1.71,4.33,1.71,2.58,0,4.77-1.26,6.58-3.78v-19.56h5.42v27.4ZM729.72,289.98h5.42v17.81c2.26-2.76,5.07-4.14,8.43-4.14,1.83,0,3.46.46,4.91,1.37s2.53,2.17,3.23,3.78c.7,1.61,1.06,4,1.06,7.18v15.6h-5.42v-16.94c0-2-.49-3.62-1.47-4.84-.98-1.22-2.28-1.83-3.89-1.83-1.19,0-2.31.31-3.37.92s-2.21,1.64-3.48,3.07v19.62h-5.42v-41.6ZM741.89,457.7c-1.28,1.67-1.92,3.64-1.92,5.93v14.32h-5.45v-27.4h5.45v6.28l.3-.48c2.62-4.23,5.24-6.34,7.86-6.34,2.04,0,4.18,1.03,6.4,3.1l-2.86,4.76c-1.89-1.79-3.63-2.68-5.24-2.68-1.75,0-3.26.83-4.54,2.5ZM784.73,551.13h-5.12l-27.81-32.04v32.04h-5.6v-41.6h4.82l28.05,32.31v-32.31h5.66v41.6ZM798.42,551.13h-5.42v-27.4h5.42v27.4ZM797.98,517.66c-.64.64-1.4.95-2.29.95-.83,0-1.57-.32-2.2-.97-.64-.64-.95-1.39-.95-2.25s.32-1.57.95-2.22c.64-.64,1.37-.97,2.2-.97.89,0,1.66.31,2.29.92.64.62.95,1.37.95,2.26s-.32,1.63-.95,2.26ZM826.8,550.09c-2.72,1.01-5.38,1.52-7.98,1.52-4.29,0-7.71-1.27-10.26-3.81-2.55-2.54-3.83-5.95-3.83-10.21s1.24-7.78,3.72-10.42c2.48-2.64,5.75-3.96,9.8-3.96,1.41,0,2.67.13,3.8.4,1.12.27,2.51.77,4.15,1.5v5.78c-2.74-1.75-5.28-2.62-7.62-2.62s-4.45.86-6.02,2.58c-1.57,1.72-2.35,3.91-2.35,6.57,0,2.8.85,5.02,2.55,6.67,1.7,1.65,3.99,2.47,6.86,2.47,2.08,0,4.48-.61,7.18-1.82v5.36ZM855.9,551.13h-5.42v-16.94c0-2-.49-3.62-1.47-4.84-.98-1.22-2.28-1.83-3.89-1.83-1.19,0-2.31.31-3.37.92s-2.21,1.64-3.48,3.07v19.62h-5.42v-41.6h5.42v17.81c2.26-2.76,5.07-4.14,8.43-4.14,1.83,0,3.46.46,4.91,1.37s2.53,2.17,3.23,3.78c.7,1.61,1.06,4,1.06,7.18v15.6ZM856.54,474.09l-.06.06c-1.41,1.18-3.15,2.18-5.23,3.02s-4.03,1.25-5.86,1.25c-2.88,0-5.33-.94-7.33-2.81-2.01-1.88-3.01-4.16-3.01-6.86,0-1.95.49-3.7,1.47-5.27.98-1.57,2.59-3.17,4.81-4.79l.09-.09c1.31-.97,2.44-1.72,3.4-2.23-3.14-3.35-4.71-6.57-4.71-9.65,0-2.84.96-5.14,2.89-6.91,1.93-1.77,4.43-2.65,7.5-2.65s5.5.87,7.44,2.59c1.95,1.73,2.92,3.94,2.92,6.62,0,3.64-2.43,7.18-7.29,10.62l-.42.33,5.86,6.68c1.71-1.87,3.2-4.1,4.47-6.7h5.96c-1.43,3.7-3.69,7.33-6.77,10.91l8.44,9.75h-7.58l-4.84-5.68c-.42.42-1.13,1.03-2.15,1.82ZM886.81,537.91h-19.27c.14,2.62,1.02,4.71,2.64,6.25,1.62,1.55,3.71,2.32,6.27,2.32,3.57,0,6.87-1.11,9.89-3.33v5.3c-1.67,1.11-3.32,1.91-4.96,2.38s-3.56.71-5.76.71c-3.02,0-5.46-.62-7.33-1.88-1.87-1.25-3.36-2.93-4.48-5.05-1.12-2.11-1.68-4.56-1.68-7.34,0-4.17,1.18-7.56,3.54-10.17,2.36-2.61,5.43-3.92,9.2-3.92s6.53,1.27,8.7,3.81c2.16,2.54,3.25,5.95,3.25,10.21v.68Z"/>
</svg>