<?xml version="1.0" encoding="UTF-8"?>
<svg id="_レイヤー_1" data-name="レイヤー_1" xmlns="http://www.w3.org/2000/svg" version="1.1" viewBox="0 0 900.42 564.23">
  <defs>
    <style>
      .st0 {
        fill: #000;
      }
    </style>
  </defs>
  <path class="st0" d="M-23.28-7.89v580.01h946.98V-7.89H-23.28ZM490.55,206.07c1.37-.57,2.88-.88,4.46-.88.52,0,1.03.03,1.52.1,3.6.46,6.68,2.55,8.49,5.51,1.09,1.78,1.72,3.88,1.72,6.13,0,.45-.02.9-.08,1.33-.66,5.85-5.63,10.4-11.66,10.4-6.48,0-11.74-5.25-11.74-11.74,0-4.91,3.01-9.11,7.28-10.86ZM427.04,344.08c0,1.25-.1,2.48-.29,3.68-15.52,3.08-29.21,6.9-40.51,11.29-3.43-4.03-5.49-9.25-5.49-14.96,0-4.39,1.22-8.49,3.34-11.99-10.94-5.38-17.24-11.69-17.24-18.43,0-14.29,28.27-26.62,69.16-32.37-14.32,1.76-30.03,2.74-46.51,2.74-23.21,0-44.89-1.93-63.31-5.28l158.09-32.99c5.56-1.16,9.12-6.6,7.96-12.16l-.7-3.38c-.11-.54-.26-1.06-.45-1.55,12.37,5.62,19.56,12.33,19.56,19.53,0,8.15-9.2,15.67-24.71,21.69-3.04-3.59-7.59-5.87-12.67-5.87-8.27,0-15.13,6.05-16.39,13.97-4.8.95-9.84,1.8-15.1,2.55,14.24-1.74,29.85-2.7,46.21-2.7,33.73,0,64.25,4.08,86.21,10.66l-162.31,33.88c8.83,3.26,15.13,11.75,15.13,21.72Z"/>
</svg>
